<?xml version="1.0" standalone="no"?>
<!DOCTYPE svg PUBLIC "-//W3C//DTD SVG 20010904//EN"
 "http://www.w3.org/TR/2001/REC-SVG-20010904/DTD/svg10.dtd">
<svg version="1.0" xmlns="http://www.w3.org/2000/svg"
 width="336.000000pt" height="315.000000pt" viewBox="0 0 336.000000 315.000000"
 preserveAspectRatio="xMidYMid meet">

<g transform="translate(0.000000,315.000000) scale(0.100000,-0.100000)"
fill="#fff" stroke="none">
<path d="M1635 3139 c-280 -16 -569 -117 -800 -280 -102 -73 -278 -245 -345
-337 -294 -407 -380 -878 -249 -1362 l21 -80 297 2 296 3 2 205 c1 113 5 215
8 227 8 33 64 46 182 41 150 -5 143 9 143 -260 l0 -218 70 0 70 0 0 163 c0
218 -9 207 164 207 98 0 137 -4 152 -14 17 -13 19 -30 22 -185 l3 -171 64 0
64 0 3 270 c3 243 5 271 21 287 15 15 39 19 140 21 113 3 124 2 150 -18 21
-17 27 -30 27 -61 0 -30 -4 -39 -17 -39 -17 -1 -17 -1 0 -14 15 -12 17 -33 17
-190 l0 -176 -62 -40 -61 -40 67 0 c66 0 68 1 118 48 87 80 146 191 163 305 7
43 6 43 -34 62 -23 10 -41 21 -41 25 0 9 349 135 355 128 7 -6 65 -313 65
-340 0 -17 -2 -18 -30 -3 -16 8 -33 15 -38 15 -5 0 -26 -27 -47 -61 -20 -33
-59 -87 -86 -120 l-50 -59 45 0 c40 0 48 4 81 42 33 39 36 41 31 16 -13 -60
-21 -58 299 -58 l293 0 21 80 c97 357 75 711 -63 1036 -82 193 -181 339 -336
494 -230 230 -518 379 -830 430 -139 23 -220 27 -365 19z m-67 -579 c129 -69
195 -181 196 -330 0 -72 -4 -94 -26 -143 -38 -80 -114 -158 -191 -193 -83 -38
-202 -40 -289 -6 -190 76 -283 307 -199 496 41 93 102 152 200 193 48 20 69
23 151 20 86 -2 101 -6 158 -37z m883 -259 c38 -38 39 -87 3 -130 -45 -54
-112 -51 -160 7 -17 20 -25 23 -51 18 -50 -11 -116 -69 -186 -162 -56 -74 -64
-90 -57 -113 20 -69 -45 -138 -117 -125 -27 5 -41 0 -82 -30 -51 -38 -195
-109 -243 -121 -15 -4 -30 -15 -33 -26 -11 -32 -55 -59 -98 -59 -32 0 -46 6
-71 34 -26 27 -44 35 -99 45 -36 6 -103 22 -147 35 -44 13 -80 20 -80 16 0
-12 -49 -30 -81 -30 -20 0 -40 10 -60 29 -89 89 33 227 129 146 16 -14 33 -36
36 -50 5 -20 19 -28 74 -45 37 -12 97 -26 134 -32 l66 -12 36 32 c22 19 48 32
64 32 26 0 69 -23 84 -44 14 -20 139 31 245 101 43 29 52 40 47 58 -9 37 21
94 59 110 19 8 43 12 54 9 17 -5 32 9 75 68 77 104 157 174 220 193 29 8 55
15 59 15 4 0 21 14 37 30 42 42 101 42 143 1z m140 -290 c23 -18 24 -26 26
-148 1 -71 -2 -134 -5 -139 -6 -9 -308 -124 -325 -124 -4 0 -7 88 -7 195 0
248 -9 235 164 235 107 0 127 -3 147 -19z m-299 -601 c-2 -16 -6 -30 -8 -30
-2 0 -4 14 -4 30 0 17 4 30 8 30 5 0 7 -13 4 -30z"/>
<path d="M1317 2526 c-137 -38 -239 -184 -224 -318 20 -169 157 -286 322 -276
112 7 196 61 251 160 26 47 29 63 29 138 0 68 -5 94 -22 130 -65 132 -220 204
-356 166z m198 -90 c77 -46 115 -115 115 -210 -1 -65 -26 -122 -77 -167 -53
-48 -100 -63 -181 -56 -79 6 -132 40 -177 112 -26 42 -30 58 -30 119 1 80 15
115 70 167 76 73 190 87 280 35z"/>
<path d="M1373 2421 c-10 -10 -27 -21 -39 -25 -59 -18 -86 -97 -50 -150 21
-32 53 -46 110 -46 50 0 80 -18 70 -43 -4 -12 -18 -17 -53 -18 -87 -1 -113
-11 -109 -41 2 -16 11 -24 28 -26 13 -2 30 -13 38 -23 16 -24 37 -24 54 -1 7
9 26 22 42 27 36 12 69 55 69 90 0 63 -54 105 -136 105 -48 0 -71 17 -61 44 5
12 20 16 68 16 73 0 108 18 90 47 -6 10 -23 19 -38 21 -14 2 -26 7 -26 12 0 5
-9 14 -20 20 -15 8 -23 6 -37 -9z"/>
<path d="M1190 769 c0 -109 2 -120 18 -117 9 2 16 7 15 11 -2 4 -3 57 -3 117
0 91 -3 110 -15 110 -13 0 -15 -20 -15 -121z"/>
<path d="M1300 770 c0 -100 3 -120 15 -120 12 0 15 16 15 85 l0 85 76 -85 c41
-47 80 -85 85 -85 6 0 8 47 7 118 -2 95 -6 117 -18 117 -12 0 -14 -15 -11 -85
l3 -85 -59 64 c-32 36 -66 75 -76 88 -10 13 -23 23 -28 23 -5 0 -9 -53 -9
-120z"/>
<path d="M1540 877 c0 -8 3 -17 7 -21 4 -4 23 -50 43 -104 21 -58 41 -97 49
-97 8 0 31 44 57 110 49 124 49 125 30 125 -8 0 -28 -38 -49 -92 -40 -104 -32
-106 -77 25 -18 49 -28 67 -42 67 -10 0 -18 -6 -18 -13z"/>
<path d="M1780 770 l0 -120 60 0 c47 0 60 3 60 15 0 11 -11 15 -38 15 -21 0
-41 2 -43 5 -3 2 -3 20 -1 39 4 31 8 35 35 38 45 4 47 28 3 28 -34 0 -36 2
-36 35 0 34 1 35 40 35 29 0 40 4 40 15 0 12 -13 15 -60 15 l-60 0 0 -120z"/>
<path d="M1961 864 c-12 -15 -21 -31 -21 -36 0 -22 23 -48 60 -69 42 -24 53
-40 44 -64 -8 -21 -38 -27 -68 -14 -32 15 -48 3 -22 -17 29 -21 82 -18 106 6
36 36 22 76 -40 115 -30 19 -40 32 -40 51 0 26 2 26 45 22 32 -4 45 -2 45 7 0
16 -22 25 -60 25 -19 0 -36 -9 -49 -26z"/>
<path d="M2100 875 c0 -10 11 -15 35 -15 l35 0 0 -105 c0 -97 2 -105 19 -105
17 0 19 8 19 78 1 143 -2 132 37 132 24 0 35 5 35 15 0 12 -17 15 -90 15 -73
0 -90 -3 -90 -15z"/>
<path d="M714 417 c149 -129 357 -246 546 -307 221 -72 517 -92 748 -50 199
36 401 115 570 224 65 41 222 163 222 172 0 2 -480 4 -1067 4 l-1068 0 49 -43z"/>
</g>
</svg>
